<svg width="160" height="160" viewBox="0 0 160 160" xmlns="http://www.w3.org/2000/svg" role="img" aria-label="Ryan Research Group organized swarm mark">
  <g fill="#00573F" opacity="0.5">
    <g transform="translate(143.0,91.1) rotate(25)"><polygon points="6.7,-6.7 -7.3,-0.7 0.7,7.3"/></g>
    <g transform="translate(131.96,110) rotate(300)"><polygon points="6.7,-6.7 -7.3,-0.7 0.7,7.3"/></g>
    <g transform="translate(121.2,129.0) rotate(110)"><polygon points="6.7,-6.7 -7.3,-0.7 0.7,7.3"/></g>
    <g transform="translate(100.5,136.4) rotate(210)"><polygon points="6.7,-6.7 -7.3,-0.7 0.7,7.3"/></g>
    <g transform="translate(80,144) rotate(60)"><polygon points="6.7,-6.7 -7.3,-0.7 0.7,7.3"/></g>
    <g transform="translate(59.5,136.4) rotate(340)"><polygon points="6.7,-6.7 -7.3,-0.7 0.7,7.3"/></g>
    <g transform="translate(38.8,129.0) rotate(150)"><polygon points="6.7,-6.7 -7.3,-0.7 0.7,7.3"/></g>
    <g transform="translate(28.04,110) rotate(20)"><polygon points="6.7,-6.7 -7.3,-0.7 0.7,7.3"/></g>
    <g transform="translate(17.0,91.1) rotate(280)"><polygon points="6.7,-6.7 -7.3,-0.7 0.7,7.3"/></g>
    <g transform="translate(20.9,69.6) rotate(95)"><polygon points="6.7,-6.7 -7.3,-0.7 0.7,7.3"/></g>
    <g transform="translate(24.6,48) rotate(190)"><polygon points="6.7,-6.7 -7.3,-0.7 0.7,7.3"/></g>
    <g transform="translate(41.4,34.0) rotate(45)"><polygon points="6.7,-6.7 -7.3,-0.7 0.7,7.3"/></g>
    <g transform="translate(58.1,19.8) rotate(320)"><polygon points="6.7,-6.7 -7.3,-0.7 0.7,7.3"/></g>
    <g transform="translate(80,20) rotate(130)"><polygon points="6.7,-6.7 -7.3,-0.7 0.7,7.3"/></g>
    <g transform="translate(101.9,19.8) rotate(240)"><polygon points="6.7,-6.7 -7.3,-0.7 0.7,7.3"/></g>
    <g transform="translate(118.6,34.0) rotate(15)"><polygon points="6.7,-6.7 -7.3,-0.7 0.7,7.3"/></g>
    <g transform="translate(135.4,48) rotate(205)"><polygon points="6.7,-6.7 -7.3,-0.7 0.7,7.3"/></g>
    <g transform="translate(139.1,69.6) rotate(80)"><polygon points="6.7,-6.7 -7.3,-0.7 0.7,7.3"/></g>
  </g>
  <g fill="#B4924F">
    <polygon points="88,42 74,48 82,56"/>
    <polygon points="113.98,57 99.98,63 107.98,71"/>
    <polygon points="113.98,87 99.98,93 107.98,101"/>
    <polygon points="88,102 74,108 82,116"/>
    <polygon points="62.02,87 48.02,93 56.02,101"/>
    <polygon points="62.02,57 48.02,63 56.02,71"/>
  </g>
  <text x="80" y="91" text-anchor="middle" font-family="'Georgia','Times New Roman',serif" font-size="30" font-weight="bold" fill="#B4924F">R</text>
</svg>
