<svg width="64" height="64" viewBox="0 0 64 64" xmlns="http://www.w3.org/2000/svg" role="img" aria-label="RRG favicon">
  <rect width="64" height="64" rx="14" fill="#00573F"/>
  <g transform="translate(7,7) scale(0.5)">
    <g stroke="#FFFFFF" stroke-width="3.2" stroke-linecap="round" fill="none">
      <line x1="50" y1="50" x2="50" y2="16"/>
      <line x1="50" y1="50" x2="79.4" y2="33"/>
      <line x1="50" y1="50" x2="79.4" y2="67"/>
      <line x1="50" y1="50" x2="50" y2="84"/>
      <line x1="50" y1="50" x2="20.6" y2="67"/>
      <line x1="50" y1="50" x2="20.6" y2="33"/>
      <line x1="50" y1="16" x2="79.4" y2="33"/>
      <line x1="79.4" y1="33" x2="79.4" y2="67"/>
      <line x1="79.4" y1="67" x2="50" y2="84"/>
      <line x1="50" y1="84" x2="20.6" y2="67"/>
      <line x1="20.6" y1="67" x2="20.6" y2="33"/>
      <line x1="20.6" y1="33" x2="50" y2="16"/>
    </g>
    <g fill="#FFFFFF">
      <circle cx="50" cy="16" r="6"/>
      <circle cx="79.4" cy="33" r="6"/>
      <circle cx="79.4" cy="67" r="6"/>
      <circle cx="50" cy="84" r="6"/>
      <circle cx="20.6" cy="67" r="6"/>
      <circle cx="20.6" cy="33" r="6"/>
    </g>
    <circle cx="50" cy="50" r="8.5" fill="#B4924F"/>
  </g>
</svg>
