<svg width="100" height="140" viewBox="0 0 100 140" xmlns="http://www.w3.org/2000/svg" role="img" aria-label="Ryan Research Group mark with bacterium and ant">
  <g fill="#00573F">
    <polygon points="42,8 56,14 48,22"/>
    <polygon points="71.4,25 85.4,31 77.4,39"/>
    <polygon points="71.4,59 85.4,65 77.4,73"/>
    <polygon points="42,76 56,82 48,90"/>
    <polygon points="12.6,59 26.6,65 18.6,73"/>
    <polygon points="12.6,25 26.6,31 18.6,39"/>
  </g>
  <text x="50" y="61" text-anchor="middle" font-family="'Georgia','Times New Roman',serif" font-size="30" font-weight="bold" fill="#B4924F">R</text>
  <g transform="translate(28,120) rotate(-18)">
    <rect x="-9" y="-4" width="18" height="8" rx="4" fill="#FFFFFF" stroke="#00573F" stroke-width="2"/>
    <path d="M9,0 q3,-4 6,0 q3,4 6,0" fill="none" stroke="#00573F" stroke-width="2" stroke-linecap="round"/>
  </g>
  <g transform="translate(74,120)">
    <g stroke="#00573F" stroke-width="1.4" stroke-linecap="round">
      <line x1="-2" y1="0" x2="-8" y2="7"/><line x1="-2" y1="0" x2="-8" y2="-7"/>
      <line x1="-2" y1="0" x2="-2" y2="9"/><line x1="-2" y1="0" x2="-2" y2="-9"/>
      <line x1="-2" y1="0" x2="4" y2="7"/><line x1="-2" y1="0" x2="4" y2="-7"/>
      <line x1="-9" y1="0" x2="-14" y2="-6"/><line x1="-9" y1="0" x2="-15" y2="-2"/>
    </g>
    <g fill="#00573F">
      <circle cx="-9" cy="0" r="3"/><circle cx="-2" cy="0" r="2.7"/>
      <ellipse cx="6" cy="0" rx="5.5" ry="4.5"/>
    </g>
  </g>
</svg>
