<svg width="100" height="100" viewBox="0 0 100 100" xmlns="http://www.w3.org/2000/svg" role="img" aria-label="Ryan Research Group mark">
  <g stroke="#00573F" stroke-width="2" stroke-linecap="round" fill="none">
    <line x1="50" y1="50" x2="50" y2="16"/>
    <line x1="50" y1="50" x2="79.4" y2="33"/>
    <line x1="50" y1="50" x2="79.4" y2="67"/>
    <line x1="50" y1="50" x2="50" y2="84"/>
    <line x1="50" y1="50" x2="20.6" y2="67"/>
    <line x1="50" y1="50" x2="20.6" y2="33"/>
    <line x1="50" y1="16" x2="79.4" y2="33"/>
    <line x1="79.4" y1="33" x2="79.4" y2="67"/>
    <line x1="79.4" y1="67" x2="50" y2="84"/>
    <line x1="50" y1="84" x2="20.6" y2="67"/>
    <line x1="20.6" y1="67" x2="20.6" y2="33"/>
    <line x1="20.6" y1="33" x2="50" y2="16"/>
  </g>
  <g fill="#00573F">
    <circle cx="50" cy="16" r="5"/>
    <circle cx="79.4" cy="33" r="5"/>
    <circle cx="79.4" cy="67" r="5"/>
    <circle cx="50" cy="84" r="5"/>
    <circle cx="20.6" cy="67" r="5"/>
    <circle cx="20.6" cy="33" r="5"/>
  </g>
  <circle cx="50" cy="50" r="7" fill="#B4924F"/>
</svg>
