<svg width="320" height="210" viewBox="0 0 320 210" xmlns="http://www.w3.org/2000/svg" role="img" aria-label="Ryan Research Group">
  <g transform="translate(110,10)">
    <g stroke="#00573F" stroke-width="2" stroke-linecap="round" fill="none">
      <line x1="50" y1="50" x2="50" y2="16"/>
      <line x1="50" y1="50" x2="79.4" y2="33"/>
      <line x1="50" y1="50" x2="79.4" y2="67"/>
      <line x1="50" y1="50" x2="50" y2="84"/>
      <line x1="50" y1="50" x2="20.6" y2="67"/>
      <line x1="50" y1="50" x2="20.6" y2="33"/>
      <line x1="50" y1="16" x2="79.4" y2="33"/>
      <line x1="79.4" y1="33" x2="79.4" y2="67"/>
      <line x1="79.4" y1="67" x2="50" y2="84"/>
      <line x1="50" y1="84" x2="20.6" y2="67"/>
      <line x1="20.6" y1="67" x2="20.6" y2="33"/>
      <line x1="20.6" y1="33" x2="50" y2="16"/>
    </g>
    <g fill="#00573F">
      <circle cx="50" cy="16" r="5"/>
      <circle cx="79.4" cy="33" r="5"/>
      <circle cx="79.4" cy="67" r="5"/>
      <circle cx="50" cy="84" r="5"/>
      <circle cx="20.6" cy="67" r="5"/>
      <circle cx="20.6" cy="33" r="5"/>
    </g>
    <circle cx="50" cy="50" r="7" fill="#B4924F"/>
  </g>
  <text x="160" y="150" text-anchor="middle" font-family="'Georgia','Times New Roman',serif" font-size="30" fill="#10251C">Ryan Research Group</text>
  <text x="160" y="178" text-anchor="middle" font-family="'Helvetica Neue',Arial,sans-serif" font-size="11.5" fill="#00573F" letter-spacing="2.5">COMPUTATIONAL &amp; APPLIED MATHEMATICS</text>
</svg>
