<svg width="560" height="130" viewBox="0 0 560 130" xmlns="http://www.w3.org/2000/svg" role="img" aria-label="Ryan Research Group reversed">
  <g transform="translate(15,15)">
    <g stroke="#FFFFFF" stroke-width="2" stroke-linecap="round" fill="none">
      <line x1="50" y1="50" x2="50" y2="16"/>
      <line x1="50" y1="50" x2="79.4" y2="33"/>
      <line x1="50" y1="50" x2="79.4" y2="67"/>
      <line x1="50" y1="50" x2="50" y2="84"/>
      <line x1="50" y1="50" x2="20.6" y2="67"/>
      <line x1="50" y1="50" x2="20.6" y2="33"/>
      <line x1="50" y1="16" x2="79.4" y2="33"/>
      <line x1="79.4" y1="33" x2="79.4" y2="67"/>
      <line x1="79.4" y1="67" x2="50" y2="84"/>
      <line x1="50" y1="84" x2="20.6" y2="67"/>
      <line x1="20.6" y1="67" x2="20.6" y2="33"/>
      <line x1="20.6" y1="33" x2="50" y2="16"/>
    </g>
    <g fill="#FFFFFF">
      <circle cx="50" cy="16" r="5"/>
      <circle cx="79.4" cy="33" r="5"/>
      <circle cx="79.4" cy="67" r="5"/>
      <circle cx="50" cy="84" r="5"/>
      <circle cx="20.6" cy="67" r="5"/>
      <circle cx="20.6" cy="33" r="5"/>
    </g>
    <circle cx="50" cy="50" r="7" fill="#B4924F"/>
  </g>
  <text x="140" y="62" font-family="'Georgia','Times New Roman',serif" font-size="34" fill="#FFFFFF" letter-spacing="0.5">Ryan Research Group</text>
  <line x1="142" y1="78" x2="470" y2="78" stroke="#B4924F" stroke-width="1"/>
  <text x="142" y="98" font-family="'Helvetica Neue',Arial,sans-serif" font-size="12.5" fill="#D9C9A3" letter-spacing="3">COMPUTATIONAL &amp; APPLIED MATHEMATICS</text>
</svg>
